<svg width="1600" height="900" viewBox="0 0 1600 900" fill="none" xmlns="http://www.w3.org/2000/svg">
  <rect width="1600" height="900" fill="#F3F6FA"/>
  <rect y="560" width="1600" height="340" fill="#53667A"/>
  <path d="M0 650L300 600L620 616L860 578L1160 603L1600 548V900H0V650Z" fill="#435569"/>
  <path d="M748 0H852V900H748V0Z" fill="#3D5167"/>
  <path d="M789 0H811V900H789V0Z" fill="#FFD95C"/>
  <circle cx="1212" cy="164" r="90" fill="#FFF0B0"/>
  <rect x="194" y="472" width="316" height="172" rx="24" fill="#374B62" fill-opacity="0.95"/>
  <rect x="1016" y="492" width="240" height="136" rx="24" fill="#42566C" fill-opacity="0.95"/>
  <rect x="190" y="460" width="328" height="186" rx="24" stroke="#00C2FF" stroke-width="10"/>
  <rect x="1010" y="486" width="252" height="148" rx="24" stroke="#62E28B" stroke-width="10"/>
  <rect x="1230" y="226" width="128" height="110" rx="18" stroke="#FF8B5E" stroke-width="10"/>
  <rect x="190" y="412" width="212" height="42" rx="21" fill="#00C2FF"/>
  <rect x="1010" y="438" width="188" height="42" rx="21" fill="#62E28B"/>
  <rect x="1230" y="178" width="146" height="42" rx="21" fill="#FF8B5E"/>
</svg>
